Monda---0_xx-205_98Copy.ufo
<glyph name="percent" format="1">
  <advance width="2107"/>
  <unicode hex="0025"/>
  <outline>
    <contour>
      <point x="1456" y="343" type="curve" smooth="yes"/>
      <point x="1456" y="438" type="line" smooth="yes"/>
      <point x="1456" y="574"/>
      <point x="1468" y="668"/>
      <point x="1611" y="668" type="curve" smooth="yes"/>
      <point x="1755" y="668"/>
      <point x="1768" y="574"/>
      <point x="1768" y="436" type="curve" smooth="yes"/>
      <point x="1768" y="343" type="line" smooth="yes"/>
      <point x="1768" y="202"/>
      <point x="1749" y="97"/>
      <point x="1611" y="97" type="curve" smooth="yes"/>
      <point x="1473" y="97"/>
      <point x="1456" y="202"/>
    </contour>
    <contour>
      <point x="1313" y="360" type="line"/>
      <point x="1313" y="132"/>
      <point x="1381" y="-19"/>
      <point x="1611" y="-19" type="curve" smooth="yes"/>
      <point x="1841" y="-19"/>
      <point x="1913" y="131"/>
      <point x="1913" y="360" type="curve" smooth="yes"/>
      <point x="1913" y="414" type="line" smooth="yes"/>
      <point x="1911" y="647"/>
      <point x="1841" y="784"/>
      <point x="1611" y="784" type="curve" smooth="yes"/>
      <point x="1380" y="784"/>
      <point x="1313" y="646"/>
      <point x="1313" y="413" type="curve" smooth="yes"/>
    </contour>
    <contour>
      <point x="1248" y="1446" type="line"/>
      <point x="705" y="0" type="line"/>
      <point x="859" y="0" type="line"/>
      <point x="1397" y="1446" type="line"/>
    </contour>
    <contour>
      <point x="209" y="1037" type="line"/>
      <point x="209" y="809"/>
      <point x="277" y="658"/>
      <point x="507" y="658" type="curve" smooth="yes"/>
      <point x="737" y="658"/>
      <point x="809" y="808"/>
      <point x="809" y="1037" type="curve" smooth="yes"/>
      <point x="809" y="1091" type="line" smooth="yes"/>
      <point x="807" y="1324"/>
      <point x="737" y="1461"/>
      <point x="507" y="1461" type="curve" smooth="yes"/>
      <point x="276" y="1461"/>
      <point x="209" y="1323"/>
      <point x="209" y="1090" type="curve" smooth="yes"/>
    </contour>
    <contour>
      <point x="352" y="1020" type="curve" smooth="yes"/>
      <point x="352" y="1115" type="line" smooth="yes"/>
      <point x="352" y="1251"/>
      <point x="364" y="1345"/>
      <point x="507" y="1345" type="curve" smooth="yes"/>
      <point x="651" y="1345"/>
      <point x="664" y="1251"/>
      <point x="664" y="1113" type="curve" smooth="yes"/>
      <point x="664" y="1020" type="line" smooth="yes"/>
      <point x="664" y="879"/>
      <point x="645" y="774"/>
      <point x="507" y="774" type="curve" smooth="yes"/>
      <point x="369" y="774"/>
      <point x="352" y="879"/>
    </contour>
  </outline>
</glyph>
<glyph name="parenleft" format="1">
  <advance width="893"/>
  <unicode hex="0028"/>
  <outline>
    <contour>
      <point x="741" y="0" type="line"/>
      <point x="445" y="0"/>
      <point x="423" y="153"/>
      <point x="423" y="409" type="curve" smooth="yes"/>
      <point x="423" y="996" type="line" smooth="yes"/>
      <point x="423" y="1253"/>
      <point x="447" y="1421"/>
      <point x="741" y="1416" type="curve"/>
      <point x="741" y="1567" type="line"/>
      <point x="256" y="1567"/>
      <point x="231" y="1265"/>
      <point x="231" y="959" type="curve" smooth="yes"/>
      <point x="231" y="440" type="line" smooth="yes"/>
      <point x="231" y="139"/>
      <point x="258" y="-150"/>
      <point x="741" y="-150" type="curve"/>
    </contour>
  </outline>
</glyph>
<glyph name="comma" format="1">
  <advance width="550"/>
  <unicode hex="002C"/>
  <outline>
    <contour>
      <point x="165" y="233" type="line"/>
      <point x="165" y="0" type="line"/>
      <point x="306" y="0" type="line"/>
      <point x="306" y="-132"/>
      <point x="216" y="-239"/>
      <point x="169" y="-294" type="curve"/>
      <point x="250" y="-338" type="line"/>
      <point x="308" y="-284"/>
      <point x="422" y="-141"/>
      <point x="422" y="50" type="curve" smooth="yes"/>
      <point x="422" y="233" type="line"/>
    </contour>
  </outline>
</glyph>
<glyph name="period" format="1">
  <advance width="512"/>
  <unicode hex="002E"/>
  <outline>
    <contour>
      <point x="164" y="206" type="line"/>
      <point x="164" y="0" type="line"/>
      <point x="369" y="0" type="line"/>
      <point x="369" y="206" type="line"/>
    </contour>
  </outline>
</glyph>
<glyph name="one" format="1">
  <advance width="1184"/>
  <unicode hex="0031"/>
  <outline>
    <contour>
      <point x="592" y="155" type="line"/>
      <point x="191" y="155" type="line"/>
      <point x="191" y="0" type="line"/>
      <point x="1147" y="0" type="line"/>
      <point x="1147" y="155" type="line"/>
      <point x="793" y="155" type="line"/>
      <point x="793" y="1446" type="line"/>
      <point x="629" y="1446" type="line"/>
      <point x="200" y="1396" type="line"/>
      <point x="218" y="1237" type="line"/>
      <point x="592" y="1277" type="line"/>
    </contour>
  </outline>
</glyph>
<glyph name="six" format="1">
  <advance width="1491"/>
  <unicode hex="0036"/>
  <outline>
    <contour>
      <point x="764" y="114" type="curve" smooth="yes"/>
      <point x="954" y="114"/>
      <point x="1115" y="184"/>
      <point x="1115" y="419" type="curve" smooth="yes"/>
      <point x="1115" y="665"/>
      <point x="955" y="728"/>
      <point x="766" y="728" type="curve" smooth="yes"/>
      <point x="574" y="728"/>
      <point x="395" y="661"/>
      <point x="395" y="419" type="curve" smooth="yes"/>
      <point x="395" y="185"/>
      <point x="572" y="114"/>
    </contour>
    <contour>
      <point x="759" y="-24" type="curve" smooth="yes"/>
      <point x="468" y="-24"/>
      <point x="198" y="99"/>
      <point x="198" y="419" type="curve" smooth="yes"/>
      <point x="198" y="501"/>
      <point x="214" y="571"/>
      <point x="244" y="629" type="curve" smooth="yes"/>
      <point x="708" y="1446" type="line"/>
      <point x="915" y="1446" type="line"/>
      <point x="570" y="844" type="line"/>
      <point x="624" y="861"/>
      <point x="707" y="872"/>
      <point x="769" y="872" type="curve" smooth="yes"/>
      <point x="1060" y="872"/>
      <point x="1311" y="749"/>
      <point x="1311" y="419" type="curve" smooth="yes"/>
      <point x="1311" y="101"/>
      <point x="1051" y="-24"/>
    </contour>
  </outline>
</glyph>
<glyph name="seven" format="1">
  <advance width="1142"/>
  <unicode hex="0037"/>
  <outline>
    <contour>
      <point x="501" y="0" type="line"/>
      <point x="991" y="1289" type="line"/>
      <point x="991" y="1446" type="line"/>
      <point x="110" y="1446" type="line"/>
      <point x="110" y="1291" type="line"/>
      <point x="790" y="1291" type="line"/>
      <point x="290" y="0" type="line"/>
    </contour>
  </outline>
</glyph>
<glyph name="colon" format="1">
  <advance width="567"/>
  <unicode hex="003A"/>
  <outline>
    <contour>
      <point x="164" y="1023" type="line"/>
      <point x="164" y="768" type="line"/>
      <point x="415" y="768" type="line"/>
      <point x="415" y="1023" type="line"/>
    </contour>
    <contour>
      <point x="164" y="353" type="line"/>
      <point x="164" y="99" type="line"/>
      <point x="415" y="99" type="line"/>
      <point x="415" y="353" type="line"/>
    </contour>
  </outline>
</glyph>
<glyph name="equal" format="1">
  <advance width="1217"/>
  <unicode hex="003D"/>
  <outline>
    <contour>
      <point x="207" y="615" type="line"/>
      <point x="207" y="467" type="line"/>
      <point x="1010" y="467" type="line"/>
      <point x="1010" y="615" type="line"/>
    </contour>
    <contour>
      <point x="207" y="953" type="line"/>
      <point x="207" y="805" type="line"/>
      <point x="1010" y="805" type="line"/>
      <point x="1010" y="953" type="line"/>
    </contour>
  </outline>
</glyph>
<glyph name="at" format="1">
  <advance width="1636"/>
  <unicode hex="0040"/>
  <outline>
    <contour>
      <point x="1493" y="301" type="line"/>
      <point x="1382" y="301"/>
      <point x="1362" y="338"/>
      <point x="1362" y="441" type="curve" smooth="yes"/>
      <point x="1362" y="842" type="line" smooth="yes"/>
      <point x="1362" y="1013"/>
      <point x="1367" y="1309"/>
      <point x="811" y="1309" type="curve" smooth="yes"/>
      <point x="326" y="1309"/>
      <point x="183" y="1087"/>
      <point x="183" y="781" type="curve" smooth="yes"/>
      <point x="183" y="312" type="line" smooth="yes"/>
      <point x="183" y="11"/>
      <point x="348" y="-218"/>
      <point x="831" y="-218" type="curve" smooth="yes"/>
      <point x="986" y="-218"/>
      <point x="1201" y="-173"/>
      <point x="1304" y="-128" type="curve"/>
      <point x="1242" y="12" type="line"/>
      <point x="1151" y="-28"/>
      <point x="952" y="-68"/>
      <point x="831" y="-68" type="curve" smooth="yes"/>
      <point x="575" y="-68"/>
      <point x="371" y="25"/>
      <point x="371" y="281" type="curve" smooth="yes"/>
      <point x="371" y="818" type="line" smooth="yes"/>
      <point x="371" y="1075"/>
      <point x="557" y="1158"/>
      <point x="811" y="1158" type="curve" smooth="yes"/>
      <point x="1169" y="1158"/>
      <point x="1174" y="1037"/>
      <point x="1174" y="835" type="curve"/>
      <point x="1173" y="835"/>
      <point x="1051" y="799"/>
      <point x="932" y="770" type="curve" smooth="yes"/>
      <point x="586" y="687"/>
      <point x="526" y="596"/>
      <point x="526" y="456" type="curve" smooth="yes"/>
      <point x="526" y="293"/>
      <point x="639" y="153"/>
      <point x="864" y="153" type="curve" smooth="yes"/>
      <point x="1059" y="153"/>
      <point x="1148" y="243"/>
      <point x="1195" y="315" type="curve"/>
      <point x="1227" y="215"/>
      <point x="1272" y="161"/>
      <point x="1413" y="161" type="curve" smooth="yes"/>
      <point x="1430" y="161"/>
      <point x="1479" y="163"/>
      <point x="1493" y="165" type="curve"/>
    </contour>
    <contour>
      <point x="1174" y="446" type="line"/>
      <point x="1144" y="348"/>
      <point x="1006" y="286"/>
      <point x="893" y="286" type="curve" smooth="yes"/>
      <point x="790" y="286"/>
      <point x="714" y="333"/>
      <point x="708" y="439" type="curve" smooth="yes"/>
      <point x="702" y="541"/>
      <point x="731" y="594"/>
      <point x="947" y="650" type="curve" smooth="yes"/>
      <point x="1083" y="685"/>
      <point x="1158" y="710"/>
      <point x="1174" y="718" type="curve"/>
    </contour>
  </outline>
</glyph>
<glyph name="D" format="1">
  <advance width="1530"/>
  <unicode hex="0044"/>
  <outline>
    <contour>
      <point x="231" y="0" type="line"/>
      <point x="801" y="0" type="line" smooth="yes"/>
      <point x="1168" y="0"/>
      <point x="1347" y="169"/>
      <point x="1347" y="482" type="curve" smooth="yes"/>
      <point x="1347" y="959" type="line" smooth="yes"/>
      <point x="1347" y="1235"/>
      <point x="1200" y="1446"/>
      <point x="799" y="1446" type="curve" smooth="yes"/>
      <point x="231" y="1446" type="line"/>
    </contour>
    <contour>
      <point x="781" y="150" type="curve" smooth="yes"/>
      <point x="433" y="150" type="line"/>
      <point x="433" y="1295" type="line"/>
      <point x="781" y="1295" type="line" smooth="yes"/>
      <point x="987" y="1295"/>
      <point x="1146" y="1238"/>
      <point x="1146" y="971" type="curve" smooth="yes"/>
      <point x="1146" y="462" type="line" smooth="yes"/>
      <point x="1146" y="196"/>
      <point x="989" y="150"/>
    </contour>
  </outline>
</glyph>
<glyph name="H" format="1">
  <advance width="1543"/>
  <unicode hex="0048"/>
  <outline>
    <contour>
      <point x="231" y="1446" type="line"/>
      <point x="231" y="0" type="line"/>
      <point x="432" y="0" type="line"/>
      <point x="432" y="659" type="line"/>
      <point x="1111" y="659" type="line"/>
      <point x="1111" y="0" type="line"/>
      <point x="1312" y="0" type="line"/>
      <point x="1312" y="1446" type="line"/>
      <point x="1111" y="1446" type="line"/>
      <point x="1111" y="807" type="line"/>
      <point x="432" y="807" type="line"/>
      <point x="432" y="1446" type="line"/>
    </contour>
  </outline>
</glyph>
<glyph name="I" format="1">
  <advance width="1133"/>
  <unicode hex="0049"/>
  <outline>
    <contour>
      <point x="942" y="0" type="line"/>
      <point x="942" y="150" type="line"/>
      <point x="667" y="150" type="line"/>
      <point x="667" y="1297" type="line"/>
      <point x="942" y="1297" type="line"/>
      <point x="942" y="1446" type="line"/>
      <point x="191" y="1446" type="line"/>
      <point x="191" y="1297" type="line"/>
      <point x="466" y="1297" type="line"/>
      <point x="466" y="150" type="line"/>
      <point x="191" y="150" type="line"/>
      <point x="191" y="0" type="line"/>
    </contour>
  </outline>
</glyph>
<glyph name="M" format="1">
  <advance width="1786"/>
  <unicode hex="004D"/>
  <outline>
    <contour>
      <point x="231" y="0" type="line"/>
      <point x="423" y="0" type="line"/>
      <point x="423" y="1117" type="line"/>
      <point x="820" y="458" type="line"/>
      <point x="969" y="458" type="line"/>
      <point x="1365" y="1121" type="line"/>
      <point x="1365" y="0" type="line"/>
      <point x="1555" y="0" type="line"/>
      <point x="1555" y="1446" type="line"/>
      <point x="1377" y="1446" type="line"/>
      <point x="894" y="638" type="line"/>
      <point x="416" y="1446" type="line"/>
      <point x="231" y="1446" type="line"/>
    </contour>
  </outline>
</glyph>
<glyph name="Q" format="1">
  <advance width="1532"/>
  <unicode hex="0051"/>
  <outline>
    <contour>
      <point x="893" y="-18" type="line"/>
      <point x="1259" y="18"/>
      <point x="1349" y="230"/>
      <point x="1349" y="500" type="curve" smooth="yes"/>
      <point x="1349" y="942" type="line" smooth="yes"/>
      <point x="1349" y="1248"/>
      <point x="1242" y="1483"/>
      <point x="775" y="1483" type="curve" smooth="yes"/>
      <point x="290" y="1483"/>
      <point x="183" y="1261"/>
      <point x="183" y="955" type="curve" smooth="yes"/>
      <point x="183" y="486" type="line" smooth="yes"/>
      <point x="183" y="198"/>
      <point x="282" y="-6"/>
      <point x="713" y="-23" type="curve"/>
      <point x="944" y="-384" type="line"/>
      <point x="1085" y="-308" type="line"/>
    </contour>
    <contour>
      <point x="775" y="126" type="curve" smooth="yes"/>
      <point x="519" y="126"/>
      <point x="385" y="199"/>
      <point x="385" y="455" type="curve" smooth="yes"/>
      <point x="385" y="992" type="line" smooth="yes"/>
      <point x="385" y="1249"/>
      <point x="521" y="1332"/>
      <point x="775" y="1332" type="curve" smooth="yes"/>
      <point x="1031" y="1332"/>
      <point x="1148" y="1249"/>
      <point x="1148" y="992" type="curve" smooth="yes"/>
      <point x="1148" y="455" type="line" smooth="yes"/>
      <point x="1148" y="199"/>
      <point x="1033" y="126"/>
    </contour>
  </outline>
</glyph>
<glyph name="S" format="1">
  <advance width="1303"/>
  <unicode hex="0053"/>
  <outline>
    <contour>
      <point x="154" y="151" type="line"/>
      <point x="280" y="66"/>
      <point x="486" y="-18"/>
      <point x="671" y="-23" type="curve" smooth="yes"/>
      <point x="962" y="-27"/>
      <point x="1168" y="132"/>
      <point x="1175" y="380" type="curve" smooth="yes"/>
      <point x="1182" y="618"/>
      <point x="1009" y="694"/>
      <point x="839" y="776" type="curve" smooth="yes"/>
      <point x="565" y="915" type="line" smooth="yes"/>
      <point x="405" y="990"/>
      <point x="369" y="1045"/>
      <point x="378" y="1137" type="curve" smooth="yes"/>
      <point x="389" y="1239"/>
      <point x="482" y="1328"/>
      <point x="681" y="1326" type="curve" smooth="yes"/>
      <point x="868" y="1322"/>
      <point x="990" y="1241"/>
      <point x="1079" y="1180" type="curve"/>
      <point x="1153" y="1331" type="line"/>
      <point x="1075" y="1360"/>
      <point x="933" y="1481"/>
      <point x="666" y="1481" type="curve" smooth="yes"/>
      <point x="422" y="1481"/>
      <point x="191" y="1372"/>
      <point x="182" y="1118" type="curve" smooth="yes"/>
      <point x="174" y="900"/>
      <point x="334" y="827"/>
      <point x="503" y="744" type="curve" smooth="yes"/>
      <point x="762" y="612" type="line" smooth="yes"/>
      <point x="931" y="531"/>
      <point x="996" y="483"/>
      <point x="983" y="352" type="curve" smooth="yes"/>
      <point x="967" y="198"/>
      <point x="847" y="138"/>
      <point x="677" y="138" type="curve" smooth="yes"/>
      <point x="482" y="138"/>
      <point x="319" y="256"/>
      <point x="225" y="306" type="curve"/>
    </contour>
  </outline>
</glyph>
<glyph name="g" format="1">
  <advance width="1186"/>
  <unicode hex="0067"/>
  <outline>
    <contour>
      <point x="585" y="935" type="curve" smooth="yes"/>
      <point x="752" y="935"/>
      <point x="829" y="869"/>
      <point x="829" y="810" type="curve" smooth="yes"/>
      <point x="829" y="264" type="line"/>
      <point x="799" y="240"/>
      <point x="722" y="182"/>
      <point x="582" y="182" type="curve" smooth="yes"/>
      <point x="444" y="182"/>
      <point x="338" y="221"/>
      <point x="338" y="348" type="curve" smooth="yes"/>
      <point x="338" y="748" type="line" smooth="yes"/>
      <point x="338" y="878"/>
      <point x="437" y="935"/>
    </contour>
    <contour>
      <point x="1017" y="30" type="curve" smooth="yes"/>
      <point x="1017" y="1060" type="line"/>
      <point x="829" y="1060" type="line"/>
      <point x="829" y="975" type="line"/>
      <point x="799" y="1025"/>
      <point x="665" y="1076"/>
      <point x="557" y="1076" type="curve" smooth="yes"/>
      <point x="281" y="1076"/>
      <point x="150" y="941"/>
      <point x="150" y="728" type="curve" smooth="yes"/>
      <point x="150" y="377" type="line" smooth="yes"/>
      <point x="150" y="157"/>
      <point x="312" y="40"/>
      <point x="583" y="40" type="curve" smooth="yes"/>
      <point x="656" y="40"/>
      <point x="769" y="69"/>
      <point x="829" y="125" type="curve"/>
      <point x="829" y="-23" type="line" smooth="yes"/>
      <point x="829" y="-100"/>
      <point x="796" y="-210"/>
      <point x="604" y="-210" type="curve" smooth="yes"/>
      <point x="471" y="-210"/>
      <point x="343" y="-169"/>
      <point x="304" y="-143" type="curve"/>
      <point x="252" y="-282" type="line"/>
      <point x="350" y="-335"/>
      <point x="467" y="-350"/>
      <point x="610" y="-350" type="curve" smooth="yes"/>
      <point x="890" y="-350"/>
      <point x="1017" y="-188"/>
    </contour>
  </outline>
</glyph>
<glyph name="i" format="1">
  <advance width="592"/>
  <unicode hex="0069"/>
  <outline>
    <contour>
      <point x="208" y="1446" type="line"/>
      <point x="208" y="1251" type="line"/>
      <point x="413" y="1251" type="line"/>
      <point x="413" y="1446" type="line"/>
    </contour>
    <contour>
      <point x="219" y="1060" type="line"/>
      <point x="219" y="0" type="line"/>
      <point x="406" y="0" type="line"/>
      <point x="406" y="1060" type="line"/>
    </contour>
  </outline>
</glyph>
<glyph name="x" format="1">
  <advance width="1049"/>
  <unicode hex="0078"/>
  <outline>
    <contour>
      <point x="80" y="1060" type="line"/>
      <point x="437" y="533" type="line"/>
      <point x="74" y="0" type="line"/>
      <point x="254" y="0" type="line"/>
      <point x="526" y="403" type="line"/>
      <point x="799" y="0" type="line"/>
      <point x="975" y="0" type="line"/>
      <point x="615" y="535" type="line"/>
      <point x="970" y="1060" type="line"/>
      <point x="796" y="1060" type="line"/>
      <point x="527" y="666" type="line"/>
      <point x="262" y="1060" type="line"/>
    </contour>
  </outline>
</glyph>
<glyph name="y" format="1">
  <advance width="1148"/>
  <unicode hex="0079"/>
  <outline>
    <contour>
      <point x="229" y="-322" type="line"/>
      <point x="334" y="-322" type="line" smooth="yes"/>
      <point x="555" y="-322"/>
      <point x="630" y="-227"/>
      <point x="723" y="45" type="curve" smooth="yes"/>
      <point x="1105" y="1060" type="line"/>
      <point x="915" y="1060" type="line"/>
      <point x="610" y="216" type="line"/>
      <point x="270" y="1060" type="line"/>
      <point x="71" y="1060" type="line"/>
      <point x="524" y="4" type="line"/>
      <point x="484" y="-145"/>
      <point x="408" y="-175"/>
      <point x="327" y="-175" type="curve" smooth="yes"/>
      <point x="229" y="-175" type="line"/>
    </contour>
  </outline>
</glyph>
<glyph name="sterling" format="1">
  <advance width="1273"/>
  <unicode hex="00A3"/>
  <outline>
    <contour>
      <point x="1036" y="668" type="line"/>
      <point x="1036" y="809" type="line"/>
      <point x="160" y="809" type="line"/>
      <point x="160" y="668" type="line"/>
    </contour>
    <contour>
      <point x="1047" y="1241" type="curve"/>
      <point x="1102" y="1396" type="line"/>
      <point x="1037" y="1430"/>
      <point x="959" y="1484"/>
      <point x="791" y="1484" type="curve" smooth="yes"/>
      <point x="466" y="1484"/>
      <point x="376" y="1307"/>
      <point x="351" y="1035" type="curve" smooth="yes"/>
      <point x="255" y="0" type="line"/>
      <point x="1060" y="0" type="line"/>
      <point x="1060" y="162" type="line"/>
      <point x="456" y="162" type="line"/>
      <point x="546" y="1034" type="line" smooth="yes"/>
      <point x="565" y="1220"/>
      <point x="599" y="1318"/>
      <point x="790" y="1318" type="curve" smooth="yes"/>
      <point x="936" y="1318"/>
      <point x="1000" y="1263"/>
    </contour>
  </outline>
</glyph>
<glyph name="dieresis" format="1">
  <advance width="956"/>
  <unicode hex="00A8"/>
  <outline>
    <contour>
      <point x="620" y="1265" type="line"/>
      <point x="826" y="1265" type="line"/>
      <point x="826" y="1446" type="line"/>
      <point x="620" y="1446" type="line"/>
    </contour>
    <contour>
      <point x="117" y="1265" type="line"/>
      <point x="323" y="1265" type="line"/>
      <point x="323" y="1446" type="line"/>
      <point x="117" y="1446" type="line"/>
    </contour>
  </outline>
</glyph>
<glyph name="copyright" format="1">
  <advance width="1865"/>
  <unicode hex="00A9"/>
  <outline>
    <contour>
      <point x="934" y="82" type="curve" smooth="yes"/>
      <point x="570" y="82"/>
      <point x="285" y="357"/>
      <point x="285" y="722" type="curve" smooth="yes"/>
      <point x="285" y="1086"/>
      <point x="570" y="1361"/>
      <point x="934" y="1361" type="curve" smooth="yes"/>
      <point x="1300" y="1361"/>
      <point x="1583" y="1086"/>
      <point x="1583" y="722" type="curve" smooth="yes"/>
      <point x="1583" y="357"/>
      <point x="1300" y="82"/>
    </contour>
    <contour>
      <point x="932" y="-14" type="curve" smooth="yes"/>
      <point x="1348" y="-14"/>
      <point x="1689" y="303"/>
      <point x="1689" y="722" type="curve" smooth="yes"/>
      <point x="1689" y="1139"/>
      <point x="1348" y="1456"/>
      <point x="932" y="1456" type="curve" smooth="yes"/>
      <point x="519" y="1456"/>
      <point x="176" y="1139"/>
      <point x="176" y="722" type="curve" smooth="yes"/>
      <point x="176" y="303"/>
      <point x="519" y="-14"/>
    </contour>
    <contour>
      <point x="1152" y="836" type="line"/>
      <point x="1268" y="836" type="line"/>
      <point x="1268" y="861" type="line" smooth="yes"/>
      <point x="1268" y="1043"/>
      <point x="1219" y="1182"/>
      <point x="942" y="1182" type="curve" smooth="yes"/>
      <point x="654" y="1182"/>
      <point x="591" y="1050"/>
      <point x="591" y="868" type="curve" smooth="yes"/>
      <point x="591" y="590" type="line" smooth="yes"/>
      <point x="591" y="411"/>
      <point x="656" y="287"/>
      <point x="943" y="287" type="curve" smooth="yes"/>
      <point x="1219" y="287"/>
      <point x="1268" y="422"/>
      <point x="1268" y="598" type="curve" smooth="yes"/>
      <point x="1268" y="632" type="line"/>
      <point x="1152" y="632" type="line"/>
      <point x="1152" y="571" type="line" smooth="yes"/>
      <point x="1152" y="419"/>
      <point x="1096" y="376"/>
      <point x="943" y="376" type="curve" smooth="yes"/>
      <point x="791" y="376"/>
      <point x="711" y="419"/>
      <point x="711" y="571" type="curve" smooth="yes"/>
      <point x="711" y="890" type="line" smooth="yes"/>
      <point x="711" y="1042"/>
      <point x="791" y="1091"/>
      <point x="942" y="1091" type="curve" smooth="yes"/>
      <point x="1094" y="1091"/>
      <point x="1152" y="1042"/>
      <point x="1152" y="890" type="curve" smooth="yes"/>
    </contour>
  </outline>
</glyph>
<glyph name="twosuperior" format="1">
  <advance width="1052"/>
  <unicode hex="00B2"/>
  <outline>
    <contour>
      <point x="230" y="449" type="line"/>
      <point x="219" y="559" type="line"/>
      <point x="578" y="948" type="line" smooth="yes"/>
      <point x="671" y="1047"/>
      <point x="704" y="1103"/>
      <point x="698" y="1213" type="curve" smooth="yes"/>
      <point x="691" y="1318"/>
      <point x="633" y="1387"/>
      <point x="525" y="1387" type="curve" smooth="yes"/>
      <point x="398" y="1387"/>
      <point x="311" y="1338"/>
      <point x="311" y="1174" type="curve"/>
      <point x="190" y="1174" type="line"/>
      <point x="190" y="1396"/>
      <point x="340" y="1484"/>
      <point x="516" y="1484" type="curve" smooth="yes"/>
      <point x="703" y="1484"/>
      <point x="820" y="1359"/>
      <point x="820" y="1199" type="curve" smooth="yes"/>
      <point x="820" y="1042"/>
      <point x="765" y="964"/>
      <point x="670" y="865" type="curve" smooth="yes"/>
      <point x="350" y="549" type="line"/>
      <point x="815" y="549" type="line"/>
      <point x="815" y="449" type="line"/>
    </contour>
  </outline>
</glyph>
<glyph name="onesuperior" format="1">
  <advance width="988"/>
  <unicode hex="00B9"/>
  <outline>
    <contour>
      <point x="469" y="602" type="line"/>
      <point x="207" y="602" type="line"/>
      <point x="207" y="501" type="line"/>
      <point x="831" y="501" type="line"/>
      <point x="831" y="602" type="line"/>
      <point x="600" y="602" type="line"/>
      <point x="600" y="1446" type="line"/>
      <point x="493" y="1446" type="line"/>
      <point x="213" y="1413" type="line"/>
      <point x="225" y="1309" type="line"/>
      <point x="469" y="1335" type="line"/>
    </contour>
  </outline>
</glyph>
<glyph name="Acircumflex" format="1">
  <advance width="1376"/>
  <unicode hex="00C2"/>
  <outline>
    <contour>
      <point x="619" y="1871" type="line"/>
      <point x="402" y="1605" type="line"/>
      <point x="563" y="1605" type="line"/>
      <point x="695" y="1779" type="line"/>
      <point x="819" y="1605" type="line"/>
      <point x="975" y="1605" type="line"/>
      <point x="769" y="1871" type="line"/>
    </contour>
    <contour>
      <point x="959" y="417" type="line"/>
      <point x="424" y="417" type="line"/>
      <point x="693" y="1184" type="line"/>
    </contour>
    <contour>
      <point x="1308" y="0" type="line"/>
      <point x="776" y="1446" type="line"/>
      <point x="599" y="1446" type="line"/>
      <point x="68" y="0" type="line"/>
      <point x="277" y="0" type="line"/>
      <point x="376" y="282" type="line"/>
      <point x="1005" y="282" type="line"/>
      <point x="1103" y="0" type="line"/>
    </contour>
  </outline>
</glyph>
<glyph name="Adieresis" format="1">
  <advance width="1376"/>
  <unicode hex="00C4"/>
  <outline>
    <contour>
      <point x="837" y="1605" type="line"/>
      <point x="1043" y="1605" type="line"/>
      <point x="1043" y="1786" type="line"/>
      <point x="837" y="1786" type="line"/>
    </contour>
    <contour>
      <point x="334" y="1605" type="line"/>
      <point x="540" y="1605" type="line"/>
      <point x="540" y="1786" type="line"/>
      <point x="334" y="1786" type="line"/>
    </contour>
    <contour>
      <point x="959" y="417" type="line"/>
      <point x="424" y="417" type="line"/>
      <point x="693" y="1184" type="line"/>
    </contour>
    <contour>
      <point x="1308" y="0" type="line"/>
      <point x="776" y="1446" type="line"/>
      <point x="599" y="1446" type="line"/>
      <point x="68" y="0" type="line"/>
      <point x="277" y="0" type="line"/>
      <point x="376" y="282" type="line"/>
      <point x="1005" y="282" type="line"/>
      <point x="1103" y="0" type="line"/>
    </contour>
  </outline>
</glyph>
<glyph name="Aring" format="1">
  <advance width="1376"/>
  <unicode hex="00C5"/>
  <outline>
    <contour>
      <point x="689" y="1536" type="curve" smooth="yes"/>
      <point x="632" y="1536"/>
      <point x="580" y="1562"/>
      <point x="580" y="1650" type="curve" smooth="yes"/>
      <point x="580" y="1737"/>
      <point x="633" y="1762"/>
      <point x="689" y="1762" type="curve" smooth="yes"/>
      <point x="747" y="1762"/>
      <point x="797" y="1735"/>
      <point x="797" y="1648" type="curve" smooth="yes"/>
      <point x="797" y="1561"/>
      <point x="746" y="1536"/>
    </contour>
    <contour>
      <point x="689" y="1471" type="curve" smooth="yes"/>
      <point x="789" y="1471"/>
      <point x="883" y="1526"/>
      <point x="883" y="1649" type="curve" smooth="yes"/>
      <point x="883" y="1772"/>
      <point x="789" y="1827"/>
      <point x="689" y="1827" type="curve" smooth="yes"/>
      <point x="589" y="1827"/>
      <point x="494" y="1772"/>
      <point x="494" y="1649" type="curve" smooth="yes"/>
      <point x="494" y="1526"/>
      <point x="589" y="1471"/>
    </contour>
    <contour>
      <point x="959" y="417" type="line"/>
      <point x="424" y="417" type="line"/>
      <point x="693" y="1184" type="line"/>
    </contour>
    <contour>
      <point x="1308" y="0" type="line"/>
      <point x="776" y="1446" type="line"/>
      <point x="599" y="1446" type="line"/>
      <point x="68" y="0" type="line"/>
      <point x="277" y="0" type="line"/>
      <point x="376" y="282" type="line"/>
      <point x="1005" y="282" type="line"/>
      <point x="1103" y="0" type="line"/>
    </contour>
  </outline>
</glyph>
<glyph name="Ccedilla" format="1">
  <advance width="1460"/>
  <unicode hex="00C7"/>
  <outline>
    <contour>
      <point x="745" y="-8" type="line"/>
      <point x="683" y="-8" type="line"/>
      <point x="683" y="-166" type="line"/>
      <point x="783" y="-169"/>
      <point x="843" y="-237"/>
      <point x="843" y="-298" type="curve" smooth="yes"/>
      <point x="843" y="-350"/>
      <point x="801" y="-397"/>
      <point x="703" y="-397" type="curve" smooth="yes"/>
      <point x="682" y="-397"/>
      <point x="658" y="-395"/>
      <point x="632" y="-390" type="curve"/>
      <point x="632" y="-486" type="line"/>
      <point x="666" y="-492"/>
      <point x="697" y="-494"/>
      <point x="725" y="-494" type="curve" smooth="yes"/>
      <point x="890" y="-494"/>
      <point x="972" y="-405"/>
      <point x="972" y="-311" type="curve" smooth="yes"/>
      <point x="972" y="-222"/>
      <point x="898" y="-128"/>
      <point x="751" y="-102" type="curve"/>
    </contour>
    <contour>
      <point x="1107" y="900" type="line"/>
      <point x="1302" y="900" type="line"/>
      <point x="1302" y="942" type="line" smooth="yes"/>
      <point x="1302" y="1248"/>
      <point x="1227" y="1483"/>
      <point x="760" y="1483" type="curve" smooth="yes"/>
      <point x="275" y="1483"/>
      <point x="183" y="1261"/>
      <point x="183" y="955" type="curve" smooth="yes"/>
      <point x="183" y="486" type="line" smooth="yes"/>
      <point x="183" y="185"/>
      <point x="279" y="-24"/>
      <point x="762" y="-24" type="curve" smooth="yes"/>
      <point x="1227" y="-24"/>
      <point x="1302" y="203"/>
      <point x="1302" y="500" type="curve" smooth="yes"/>
      <point x="1302" y="558" type="line"/>
      <point x="1107" y="558" type="line"/>
      <point x="1107" y="455" type="line" smooth="yes"/>
      <point x="1107" y="199"/>
      <point x="1020" y="126"/>
      <point x="762" y="126" type="curve" smooth="yes"/>
      <point x="506" y="126"/>
      <point x="385" y="199"/>
      <point x="385" y="455" type="curve" smooth="yes"/>
      <point x="385" y="992" type="line" smooth="yes"/>
      <point x="385" y="1249"/>
      <point x="506" y="1332"/>
      <point x="760" y="1332" type="curve" smooth="yes"/>
      <point x="1016" y="1332"/>
      <point x="1107" y="1249"/>
      <point x="1107" y="992" type="curve" smooth="yes"/>
    </contour>
  </outline>
</glyph>
<glyph name="Eacute" format="1">
  <advance width="1241"/>
  <unicode hex="00C9"/>
  <outline>
    <contour>
      <point x="476" y="1946" type="line"/>
      <point x="733" y="1605" type="line"/>
      <point x="839" y="1605" type="line"/>
      <point x="701" y="1946" type="line"/>
    </contour>
    <contour>
      <point x="231" y="1446" type="line"/>
      <point x="231" y="0" type="line"/>
      <point x="1083" y="0" type="line"/>
      <point x="1083" y="150" type="line"/>
      <point x="432" y="150" type="line"/>
      <point x="432" y="664" type="line"/>
      <point x="1013" y="664" type="line"/>
      <point x="1013" y="814" type="line"/>
      <point x="432" y="814" type="line"/>
      <point x="432" y="1296" type="line"/>
      <point x="1074" y="1296" type="line"/>
      <point x="1074" y="1446" type="line"/>
    </contour>
  </outline>
</glyph>
<glyph name="Ecircumflex" format="1">
  <advance width="1241"/>
  <unicode hex="00CA"/>
  <outline>
    <contour>
      <point x="588" y="1871" type="line"/>
      <point x="371" y="1605" type="line"/>
      <point x="532" y="1605" type="line"/>
      <point x="664" y="1779" type="line"/>
      <point x="788" y="1605" type="line"/>
      <point x="944" y="1605" type="line"/>
      <point x="738" y="1871" type="line"/>
    </contour>
    <contour>
      <point x="231" y="1446" type="line"/>
      <point x="231" y="0" type="line"/>
      <point x="1083" y="0" type="line"/>
      <point x="1083" y="150" type="line"/>
      <point x="432" y="150" type="line"/>
      <point x="432" y="664" type="line"/>
      <point x="1013" y="664" type="line"/>
      <point x="1013" y="814" type="line"/>
      <point x="432" y="814" type="line"/>
      <point x="432" y="1296" type="line"/>
      <point x="1074" y="1296" type="line"/>
      <point x="1074" y="1446" type="line"/>
    </contour>
  </outline>
</glyph>
<glyph name="Odieresis" format="1">
  <advance width="1532"/>
  <unicode hex="00D6"/>
  <outline>
    <contour>
      <point x="915" y="1605" type="line"/>
      <point x="1121" y="1605" type="line"/>
      <point x="1121" y="1786" type="line"/>
      <point x="915" y="1786" type="line"/>
    </contour>
    <contour>
      <point x="412" y="1605" type="line"/>
      <point x="618" y="1605" type="line"/>
      <point x="618" y="1786" type="line"/>
      <point x="412" y="1786" type="line"/>
    </contour>
    <contour>
      <point x="775" y="-24" type="curve" smooth="yes"/>
      <point x="1240" y="-24"/>
      <point x="1349" y="203"/>
      <point x="1349" y="500" type="curve" smooth="yes"/>
      <point x="1349" y="942" type="line" smooth="yes"/>
      <point x="1349" y="1248"/>
      <point x="1242" y="1483"/>
      <point x="775" y="1483" type="curve" smooth="yes"/>
      <point x="290" y="1483"/>
      <point x="183" y="1261"/>
      <point x="183" y="955" type="curve" smooth="yes"/>
      <point x="183" y="486" type="line" smooth="yes"/>
      <point x="183" y="185"/>
      <point x="292" y="-24"/>
    </contour>
    <contour>
      <point x="775" y="126" type="curve" smooth="yes"/>
      <point x="519" y="126"/>
      <point x="385" y="199"/>
      <point x="385" y="455" type="curve" smooth="yes"/>
      <point x="385" y="992" type="line" smooth="yes"/>
      <point x="385" y="1249"/>
      <point x="521" y="1332"/>
      <point x="775" y="1332" type="curve" smooth="yes"/>
      <point x="1031" y="1332"/>
      <point x="1148" y="1249"/>
      <point x="1148" y="992" type="curve" smooth="yes"/>
      <point x="1148" y="455" type="line" smooth="yes"/>
      <point x="1148" y="199"/>
      <point x="1033" y="126"/>
    </contour>
  </outline>
</glyph>
<glyph name="Uacute" format="1">
  <advance width="1526"/>
  <unicode hex="00DA"/>
  <outline>
    <contour>
      <point x="582" y="1946" type="line"/>
      <point x="839" y="1605" type="line"/>
      <point x="945" y="1605" type="line"/>
      <point x="807" y="1946" type="line"/>
    </contour>
    <contour>
      <point x="202" y="473" type="line"/>
      <point x="202" y="202"/>
      <point x="300" y="-24"/>
      <point x="773" y="-24" type="curve" smooth="yes"/>
      <point x="1226" y="-24"/>
      <point x="1324" y="205"/>
      <point x="1324" y="473" type="curve" smooth="yes"/>
      <point x="1324" y="1446" type="line"/>
      <point x="1122" y="1446" type="line"/>
      <point x="1122" y="452" type="line" smooth="yes"/>
      <point x="1122" y="186"/>
      <point x="976" y="132"/>
      <point x="773" y="132" type="curve" smooth="yes"/>
      <point x="572" y="132"/>
      <point x="404" y="186"/>
      <point x="404" y="452" type="curve" smooth="yes"/>
      <point x="404" y="1446" type="line"/>
      <point x="202" y="1446" type="line"/>
    </contour>
  </outline>
</glyph>
<glyph name="Ucircumflex" format="1">
  <advance width="1526"/>
  <unicode hex="00DB"/>
  <outline>
    <contour>
      <point x="694" y="1871" type="line"/>
      <point x="477" y="1605" type="line"/>
      <point x="638" y="1605" type="line"/>
      <point x="770" y="1779" type="line"/>
      <point x="894" y="1605" type="line"/>
      <point x="1050" y="1605" type="line"/>
      <point x="844" y="1871" type="line"/>
    </contour>
    <contour>
      <point x="202" y="473" type="line"/>
      <point x="202" y="202"/>
      <point x="300" y="-24"/>
      <point x="773" y="-24" type="curve" smooth="yes"/>
      <point x="1226" y="-24"/>
      <point x="1324" y="205"/>
      <point x="1324" y="473" type="curve" smooth="yes"/>
      <point x="1324" y="1446" type="line"/>
      <point x="1122" y="1446" type="line"/>
      <point x="1122" y="452" type="line" smooth="yes"/>
      <point x="1122" y="186"/>
      <point x="976" y="132"/>
      <point x="773" y="132" type="curve" smooth="yes"/>
      <point x="572" y="132"/>
      <point x="404" y="186"/>
      <point x="404" y="452" type="curve" smooth="yes"/>
      <point x="404" y="1446" type="line"/>
      <point x="202" y="1446" type="line"/>
    </contour>
  </outline>
</glyph>
<glyph name="Udieresis" format="1">
  <advance width="1526"/>
  <unicode hex="00DC"/>
  <outline>
    <contour>
      <point x="912" y="1605" type="line"/>
      <point x="1118" y="1605" type="line"/>
      <point x="1118" y="1786" type="line"/>
      <point x="912" y="1786" type="line"/>
    </contour>
    <contour>
      <point x="409" y="1605" type="line"/>
      <point x="615" y="1605" type="line"/>
      <point x="615" y="1786" type="line"/>
      <point x="409" y="1786" type="line"/>
    </contour>
    <contour>
      <point x="202" y="473" type="line"/>
      <point x="202" y="202"/>
      <point x="300" y="-24"/>
      <point x="773" y="-24" type="curve" smooth="yes"/>
      <point x="1226" y="-24"/>
      <point x="1324" y="205"/>
      <point x="1324" y="473" type="curve" smooth="yes"/>
      <point x="1324" y="1446" type="line"/>
      <point x="1122" y="1446" type="line"/>
      <point x="1122" y="452" type="line" smooth="yes"/>
      <point x="1122" y="186"/>
      <point x="976" y="132"/>
      <point x="773" y="132" type="curve" smooth="yes"/>
      <point x="572" y="132"/>
      <point x="404" y="186"/>
      <point x="404" y="452" type="curve" smooth="yes"/>
      <point x="404" y="1446" type="line"/>
      <point x="202" y="1446" type="line"/>
    </contour>
  </outline>
</glyph>
<glyph name="Yacute" format="1">
  <advance width="1318"/>
  <unicode hex="00DD"/>
  <outline>
    <contour>
      <point x="482" y="1946" type="line"/>
      <point x="739" y="1605" type="line"/>
      <point x="845" y="1605" type="line"/>
      <point x="707" y="1946" type="line"/>
    </contour>
    <contour>
      <point x="65" y="1446" type="line"/>
      <point x="572" y="568" type="line"/>
      <point x="572" y="0" type="line"/>
      <point x="773" y="0" type="line"/>
      <point x="773" y="568" type="line"/>
      <point x="1261" y="1446" type="line"/>
      <point x="1066" y="1446" type="line"/>
      <point x="673" y="744" type="line"/>
      <point x="266" y="1446" type="line"/>
    </contour>
  </outline>
</glyph>
<glyph name="ccedilla" format="1">
  <advance width="1130"/>
  <unicode hex="00E7"/>
  <outline>
    <contour>
      <point x="583" y="-4" type="line"/>
      <point x="521" y="-4" type="line"/>
      <point x="521" y="-162" type="line"/>
      <point x="621" y="-165"/>
      <point x="681" y="-233"/>
      <point x="681" y="-294" type="curve" smooth="yes"/>
      <point x="681" y="-346"/>
      <point x="639" y="-393"/>
      <point x="541" y="-393" type="curve" smooth="yes"/>
      <point x="520" y="-393"/>
      <point x="496" y="-391"/>
      <point x="470" y="-386" type="curve"/>
      <point x="470" y="-482" type="line"/>
      <point x="504" y="-488"/>
      <point x="535" y="-490"/>
      <point x="563" y="-490" type="curve" smooth="yes"/>
      <point x="728" y="-490"/>
      <point x="810" y="-401"/>
      <point x="810" y="-307" type="curve" smooth="yes"/>
      <point x="810" y="-218"/>
      <point x="736" y="-124"/>
      <point x="589" y="-98" type="curve"/>
    </contour>
    <contour>
      <point x="828" y="679" type="line"/>
      <point x="1010" y="679" type="line"/>
      <point x="1010" y="768" type="line" smooth="yes"/>
      <point x="1010" y="981"/>
      <point x="850" y="1080"/>
      <point x="587" y="1080" type="curve" smooth="yes"/>
      <point x="324" y="1080"/>
      <point x="150" y="951"/>
      <point x="150" y="751" type="curve" smooth="yes"/>
      <point x="150" y="314" type="line" smooth="yes"/>
      <point x="150" y="118"/>
      <point x="271" y="-20"/>
      <point x="587" y="-20" type="curve" smooth="yes"/>
      <point x="916" y="-20"/>
      <point x="1010" y="94"/>
      <point x="1010" y="289" type="curve" smooth="yes"/>
      <point x="1010" y="356" type="line"/>
      <point x="828" y="356" type="line"/>
      <point x="828" y="283" type="line" smooth="yes"/>
      <point x="828" y="153"/>
      <point x="726" y="121"/>
      <point x="587" y="121" type="curve" smooth="yes"/>
      <point x="440" y="121"/>
      <point x="337" y="166"/>
      <point x="337" y="308" type="curve" smooth="yes"/>
      <point x="337" y="757" type="line" smooth="yes"/>
      <point x="337" y="888"/>
      <point x="441" y="938"/>
      <point x="587" y="938" type="curve" smooth="yes"/>
      <point x="732" y="938"/>
      <point x="828" y="899"/>
      <point x="828" y="774" type="curve" smooth="yes"/>
    </contour>
  </outline>
</glyph>
<glyph name="oslash" format="1">
  <advance width="1167"/>
  <unicode hex="00F8"/>
  <outline>
    <contour>
      <point x="811" y="1251" type="line"/>
      <point x="271" y="-195" type="line"/>
      <point x="363" y="-226" type="line"/>
      <point x="901" y="1220" type="line"/>
    </contour>
    <contour>
      <point x="829" y="763" type="curve" smooth="yes"/>
      <point x="829" y="301" type="line" smooth="yes"/>
      <point x="829" y="171"/>
      <point x="722" y="121"/>
      <point x="583" y="121" type="curve" smooth="yes"/>
      <point x="436" y="121"/>
      <point x="338" y="170"/>
      <point x="338" y="301" type="curve" smooth="yes"/>
      <point x="338" y="763" type="line" smooth="yes"/>
      <point x="338" y="894"/>
      <point x="444" y="938"/>
      <point x="583" y="938" type="curve" smooth="yes"/>
      <point x="728" y="938"/>
      <point x="829" y="888"/>
    </contour>
    <contour>
      <point x="1017" y="747" type="line"/>
      <point x="1017" y="947"/>
      <point x="846" y="1080"/>
      <point x="583" y="1080" type="curve" smooth="yes"/>
      <point x="320" y="1080"/>
      <point x="150" y="947"/>
      <point x="150" y="747" type="curve" smooth="yes"/>
      <point x="150" y="317" type="line" smooth="yes"/>
      <point x="150" y="121"/>
      <point x="267" y="-20"/>
      <point x="583" y="-20" type="curve" smooth="yes"/>
      <point x="912" y="-20"/>
      <point x="1017" y="122"/>
      <point x="1017" y="317" type="curve" smooth="yes"/>
    </contour>
    <contour>
      <point x="829" y="763" type="curve" smooth="yes"/>
      <point x="829" y="301" type="line" smooth="yes"/>
      <point x="829" y="171"/>
      <point x="722" y="121"/>
      <point x="583" y="121" type="curve" smooth="yes"/>
      <point x="436" y="121"/>
      <point x="338" y="170"/>
      <point x="338" y="301" type="curve" smooth="yes"/>
      <point x="338" y="763" type="line" smooth="yes"/>
      <point x="338" y="894"/>
      <point x="444" y="938"/>
      <point x="583" y="938" type="curve" smooth="yes"/>
      <point x="728" y="938"/>
      <point x="829" y="888"/>
    </contour>
    <contour>
      <point x="1017" y="747" type="line"/>
      <point x="1017" y="947"/>
      <point x="846" y="1080"/>
      <point x="583" y="1080" type="curve" smooth="yes"/>
      <point x="320" y="1080"/>
      <point x="150" y="947"/>
      <point x="150" y="747" type="curve" smooth="yes"/>
      <point x="150" y="317" type="line" smooth="yes"/>
      <point x="150" y="121"/>
      <point x="267" y="-20"/>
      <point x="583" y="-20" type="curve" smooth="yes"/>
      <point x="912" y="-20"/>
      <point x="1017" y="122"/>
      <point x="1017" y="317" type="curve" smooth="yes"/>
    </contour>
    <contour>
      <point x="829" y="763" type="curve" smooth="yes"/>
      <point x="829" y="301" type="line" smooth="yes"/>
      <point x="829" y="171"/>
      <point x="722" y="121"/>
      <point x="583" y="121" type="curve" smooth="yes"/>
      <point x="436" y="121"/>
      <point x="338" y="170"/>
      <point x="338" y="301" type="curve" smooth="yes"/>
      <point x="338" y="763" type="line" smooth="yes"/>
      <point x="338" y="894"/>
      <point x="444" y="938"/>
      <point x="583" y="938" type="curve" smooth="yes"/>
      <point x="728" y="938"/>
      <point x="829" y="888"/>
    </contour>
    <contour>
      <point x="1017" y="747" type="line"/>
      <point x="1017" y="947"/>
      <point x="846" y="1080"/>
      <point x="583" y="1080" type="curve" smooth="yes"/>
      <point x="320" y="1080"/>
      <point x="150" y="947"/>
      <point x="150" y="747" type="curve" smooth="yes"/>
      <point x="150" y="317" type="line" smooth="yes"/>
      <point x="150" y="121"/>
      <point x="267" y="-20"/>
      <point x="583" y="-20" type="curve" smooth="yes"/>
      <point x="912" y="-20"/>
      <point x="1017" y="122"/>
      <point x="1017" y="317" type="curve" smooth="yes"/>
    </contour>
    <contour>
      <point x="829" y="763" type="curve" smooth="yes"/>
      <point x="829" y="301" type="line" smooth="yes"/>
      <point x="829" y="171"/>
      <point x="722" y="121"/>
      <point x="583" y="121" type="curve" smooth="yes"/>
      <point x="436" y="121"/>
      <point x="338" y="170"/>
      <point x="338" y="301" type="curve" smooth="yes"/>
      <point x="338" y="763" type="line" smooth="yes"/>
      <point x="338" y="894"/>
      <point x="444" y="938"/>
      <point x="583" y="938" type="curve" smooth="yes"/>
      <point x="728" y="938"/>
      <point x="829" y="888"/>
    </contour>
    <contour>
      <point x="1017" y="747" type="line"/>
      <point x="1017" y="947"/>
      <point x="846" y="1080"/>
      <point x="583" y="1080" type="curve" smooth="yes"/>
      <point x="320" y="1080"/>
      <point x="150" y="947"/>
      <point x="150" y="747" type="curve" smooth="yes"/>
      <point x="150" y="317" type="line" smooth="yes"/>
      <point x="150" y="121"/>
      <point x="267" y="-20"/>
      <point x="583" y="-20" type="curve" smooth="yes"/>
      <point x="912" y="-20"/>
      <point x="1017" y="122"/>
      <point x="1017" y="317" type="curve" smooth="yes"/>
    </contour>
    <contour>
      <point x="829" y="763" type="curve" smooth="yes"/>
      <point x="829" y="301" type="line" smooth="yes"/>
      <point x="829" y="171"/>
      <point x="722" y="121"/>
      <point x="583" y="121" type="curve" smooth="yes"/>
      <point x="436" y="121"/>
      <point x="338" y="170"/>
      <point x="338" y="301" type="curve" smooth="yes"/>
      <point x="338" y="763" type="line" smooth="yes"/>
      <point x="338" y="894"/>
      <point x="444" y="938"/>
      <point x="583" y="938" type="curve" smooth="yes"/>
      <point x="728" y="938"/>
      <point x="829" y="888"/>
    </contour>
    <contour>
      <point x="1017" y="747" type="line"/>
      <point x="1017" y="947"/>
      <point x="846" y="1080"/>
      <point x="583" y="1080" type="curve" smooth="yes"/>
      <point x="320" y="1080"/>
      <point x="150" y="947"/>
      <point x="150" y="747" type="curve" smooth="yes"/>
      <point x="150" y="317" type="line" smooth="yes"/>
      <point x="150" y="121"/>
      <point x="267" y="-20"/>
      <point x="583" y="-20" type="curve" smooth="yes"/>
      <point x="912" y="-20"/>
      <point x="1017" y="122"/>
      <point x="1017" y="317" type="curve" smooth="yes"/>
    </contour>
    <contour>
      <point x="829" y="763" type="curve" smooth="yes"/>
      <point x="829" y="301" type="line" smooth="yes"/>
      <point x="829" y="171"/>
      <point x="722" y="121"/>
      <point x="583" y="121" type="curve" smooth="yes"/>
      <point x="436" y="121"/>
      <point x="338" y="170"/>
      <point x="338" y="301" type="curve" smooth="yes"/>
      <point x="338" y="763" type="line" smooth="yes"/>
      <point x="338" y="894"/>
      <point x="444" y="938"/>
      <point x="583" y="938" type="curve" smooth="yes"/>
      <point x="728" y="938"/>
      <point x="829" y="888"/>
    </contour>
    <contour>
      <point x="1017" y="747" type="line"/>
      <point x="1017" y="947"/>
      <point x="846" y="1080"/>
      <point x="583" y="1080" type="curve" smooth="yes"/>
      <point x="320" y="1080"/>
      <point x="150" y="947"/>
      <point x="150" y="747" type="curve" smooth="yes"/>
      <point x="150" y="317" type="line" smooth="yes"/>
      <point x="150" y="121"/>
      <point x="267" y="-20"/>
      <point x="583" y="-20" type="curve" smooth="yes"/>
      <point x="912" y="-20"/>
      <point x="1017" y="122"/>
      <point x="1017" y="317" type="curve" smooth="yes"/>
    </contour>
    <contour>
      <point x="829" y="763" type="curve" smooth="yes"/>
      <point x="829" y="301" type="line" smooth="yes"/>
      <point x="829" y="171"/>
      <point x="722" y="121"/>
      <point x="583" y="121" type="curve" smooth="yes"/>
      <point x="436" y="121"/>
      <point x="338" y="170"/>
      <point x="338" y="301" type="curve" smooth="yes"/>
      <point x="338" y="763" type="line" smooth="yes"/>
      <point x="338" y="894"/>
      <point x="444" y="938"/>
      <point x="583" y="938" type="curve" smooth="yes"/>
      <point x="728" y="938"/>
      <point x="829" y="888"/>
    </contour>
    <contour>
      <point x="1017" y="747" type="line"/>
      <point x="1017" y="947"/>
      <point x="846" y="1080"/>
      <point x="583" y="1080" type="curve" smooth="yes"/>
      <point x="320" y="1080"/>
      <point x="150" y="947"/>
      <point x="150" y="747" type="curve" smooth="yes"/>
      <point x="150" y="317" type="line" smooth="yes"/>
      <point x="150" y="121"/>
      <point x="267" y="-20"/>
      <point x="583" y="-20" type="curve" smooth="yes"/>
      <point x="912" y="-20"/>
      <point x="1017" y="122"/>
      <point x="1017" y="317" type="curve" smooth="yes"/>
    </contour>
  </outline>
</glyph>
<glyph name="uacute" format="1">
  <advance width="1189"/>
  <unicode hex="00FA"/>
  <outline>
    <contour>
      <point x="406" y="1543" type="line"/>
      <point x="663" y="1202" type="line"/>
      <point x="769" y="1202" type="line"/>
      <point x="631" y="1543" type="line"/>
    </contour>
    <contour>
      <point x="1012" y="1060" type="line"/>
      <point x="824" y="1060" type="line"/>
      <point x="824" y="297" type="line" smooth="yes"/>
      <point x="824" y="208"/>
      <point x="748" y="122"/>
      <point x="564" y="122" type="curve" smooth="yes"/>
      <point x="433" y="122"/>
      <point x="350" y="180"/>
      <point x="350" y="285" type="curve" smooth="yes"/>
      <point x="350" y="1060" type="line"/>
      <point x="162" y="1060" type="line"/>
      <point x="162" y="290" type="line" smooth="yes"/>
      <point x="162" y="122"/>
      <point x="255" y="-20"/>
      <point x="516" y="-20" type="curve" smooth="yes"/>
      <point x="670" y="-20"/>
      <point x="762" y="31"/>
      <point x="824" y="103" type="curve"/>
      <point x="824" y="0" type="line"/>
      <point x="1012" y="0" type="line"/>
    </contour>
  </outline>
</glyph>
<glyph name="ucircumflex" format="1">
  <advance width="1189"/>
  <unicode hex="00FB"/>
  <outline>
    <contour>
      <point x="518" y="1468" type="line"/>
      <point x="301" y="1202" type="line"/>
      <point x="462" y="1202" type="line"/>
      <point x="594" y="1376" type="line"/>
      <point x="718" y="1202" type="line"/>
      <point x="874" y="1202" type="line"/>
      <point x="668" y="1468" type="line"/>
    </contour>
    <contour>
      <point x="1012" y="1060" type="line"/>
      <point x="824" y="1060" type="line"/>
      <point x="824" y="297" type="line" smooth="yes"/>
      <point x="824" y="208"/>
      <point x="748" y="122"/>
      <point x="564" y="122" type="curve" smooth="yes"/>
      <point x="433" y="122"/>
      <point x="350" y="180"/>
      <point x="350" y="285" type="curve" smooth="yes"/>
      <point x="350" y="1060" type="line"/>
      <point x="162" y="1060" type="line"/>
      <point x="162" y="290" type="line" smooth="yes"/>
      <point x="162" y="122"/>
      <point x="255" y="-20"/>
      <point x="516" y="-20" type="curve" smooth="yes"/>
      <point x="670" y="-20"/>
      <point x="762" y="31"/>
      <point x="824" y="103" type="curve"/>
      <point x="824" y="0" type="line"/>
      <point x="1012" y="0" type="line"/>
    </contour>
  </outline>
</glyph>
<glyph name="Abreve" format="1">
  <advance width="1376"/>
  <unicode hex="0102"/>
  <outline>
    <contour>
      <point x="462" y="1817" type="line"/>
      <point x="462" y="1702"/>
      <point x="549" y="1605"/>
      <point x="688" y="1605" type="curve" smooth="yes"/>
      <point x="827" y="1605"/>
      <point x="915" y="1702"/>
      <point x="915" y="1817" type="curve"/>
      <point x="809" y="1817" type="line"/>
      <point x="809" y="1748"/>
      <point x="761" y="1701"/>
      <point x="688" y="1701" type="curve" smooth="yes"/>
      <point x="619" y="1701"/>
      <point x="567" y="1751"/>
      <point x="567" y="1817" type="curve"/>
    </contour>
    <contour>
      <point x="959" y="417" type="line"/>
      <point x="424" y="417" type="line"/>
      <point x="693" y="1184" type="line"/>
    </contour>
    <contour>
      <point x="1308" y="0" type="line"/>
      <point x="776" y="1446" type="line"/>
      <point x="599" y="1446" type="line"/>
      <point x="68" y="0" type="line"/>
      <point x="277" y="0" type="line"/>
      <point x="376" y="282" type="line"/>
      <point x="1005" y="282" type="line"/>
      <point x="1103" y="0" type="line"/>
    </contour>
  </outline>
</glyph>
<glyph name="Cdotaccent" format="1">
  <advance width="1460"/>
  <unicode hex="010A"/>
  <outline>
    <contour>
      <point x="616" y="1846" type="line"/>
      <point x="616" y="1605" type="line"/>
      <point x="870" y="1605" type="line"/>
      <point x="870" y="1846" type="line"/>
    </contour>
    <contour>
      <point x="1107" y="900" type="line"/>
      <point x="1302" y="900" type="line"/>
      <point x="1302" y="942" type="line" smooth="yes"/>
      <point x="1302" y="1248"/>
      <point x="1227" y="1483"/>
      <point x="760" y="1483" type="curve" smooth="yes"/>
      <point x="275" y="1483"/>
      <point x="183" y="1261"/>
      <point x="183" y="955" type="curve" smooth="yes"/>
      <point x="183" y="486" type="line" smooth="yes"/>
      <point x="183" y="185"/>
      <point x="279" y="-24"/>
      <point x="762" y="-24" type="curve" smooth="yes"/>
      <point x="1227" y="-24"/>
      <point x="1302" y="203"/>
      <point x="1302" y="500" type="curve" smooth="yes"/>
      <point x="1302" y="558" type="line"/>
      <point x="1107" y="558" type="line"/>
      <point x="1107" y="455" type="line" smooth="yes"/>
      <point x="1107" y="199"/>
      <point x="1020" y="126"/>
      <point x="762" y="126" type="curve" smooth="yes"/>
      <point x="506" y="126"/>
      <point x="385" y="199"/>
      <point x="385" y="455" type="curve" smooth="yes"/>
      <point x="385" y="992" type="line" smooth="yes"/>
      <point x="385" y="1249"/>
      <point x="506" y="1332"/>
      <point x="760" y="1332" type="curve" smooth="yes"/>
      <point x="1016" y="1332"/>
      <point x="1107" y="1249"/>
      <point x="1107" y="992" type="curve" smooth="yes"/>
    </contour>
  </outline>
</glyph>
<glyph name="ccaron" format="1">
  <advance width="1130"/>
  <unicode hex="010D"/>
  <outline>
    <contour>
      <point x="650" y="1202" type="line"/>
      <point x="867" y="1468" type="line"/>
      <point x="706" y="1468" type="line"/>
      <point x="574" y="1294" type="line"/>
      <point x="450" y="1468" type="line"/>
      <point x="294" y="1468" type="line"/>
      <point x="500" y="1202" type="line"/>
    </contour>
    <contour>
      <point x="828" y="679" type="line"/>
      <point x="1010" y="679" type="line"/>
      <point x="1010" y="768" type="line" smooth="yes"/>
      <point x="1010" y="981"/>
      <point x="850" y="1080"/>
      <point x="587" y="1080" type="curve" smooth="yes"/>
      <point x="324" y="1080"/>
      <point x="150" y="951"/>
      <point x="150" y="751" type="curve" smooth="yes"/>
      <point x="150" y="314" type="line" smooth="yes"/>
      <point x="150" y="118"/>
      <point x="271" y="-20"/>
      <point x="587" y="-20" type="curve" smooth="yes"/>
      <point x="916" y="-20"/>
      <point x="1010" y="94"/>
      <point x="1010" y="289" type="curve" smooth="yes"/>
      <point x="1010" y="356" type="line"/>
      <point x="828" y="356" type="line"/>
      <point x="828" y="283" type="line" smooth="yes"/>
      <point x="828" y="153"/>
      <point x="726" y="121"/>
      <point x="587" y="121" type="curve" smooth="yes"/>
      <point x="440" y="121"/>
      <point x="337" y="166"/>
      <point x="337" y="308" type="curve" smooth="yes"/>
      <point x="337" y="757" type="line" smooth="yes"/>
      <point x="337" y="888"/>
      <point x="441" y="938"/>
      <point x="587" y="938" type="curve" smooth="yes"/>
      <point x="732" y="938"/>
      <point x="828" y="899"/>
      <point x="828" y="774" type="curve" smooth="yes"/>
    </contour>
  </outline>
</glyph>
<glyph name="Dcaron" format="1">
  <advance width="1530"/>
  <unicode hex="010E"/>
  <outline>
    <contour>
      <point x="859" y="1605" type="line"/>
      <point x="1076" y="1871" type="line"/>
      <point x="915" y="1871" type="line"/>
      <point x="783" y="1697" type="line"/>
      <point x="659" y="1871" type="line"/>
      <point x="503" y="1871" type="line"/>
      <point x="709" y="1605" type="line"/>
    </contour>
    <contour>
      <point x="231" y="0" type="line"/>
      <point x="801" y="0" type="line" smooth="yes"/>
      <point x="1168" y="0"/>
      <point x="1347" y="169"/>
      <point x="1347" y="482" type="curve" smooth="yes"/>
      <point x="1347" y="959" type="line" smooth="yes"/>
      <point x="1347" y="1235"/>
      <point x="1200" y="1446"/>
      <point x="799" y="1446" type="curve" smooth="yes"/>
      <point x="231" y="1446" type="line"/>
    </contour>
    <contour>
      <point x="781" y="150" type="curve" smooth="yes"/>
      <point x="433" y="150" type="line"/>
      <point x="433" y="1295" type="line"/>
      <point x="781" y="1295" type="line" smooth="yes"/>
      <point x="987" y="1295"/>
      <point x="1146" y="1238"/>
      <point x="1146" y="971" type="curve" smooth="yes"/>
      <point x="1146" y="462" type="line" smooth="yes"/>
      <point x="1146" y="196"/>
      <point x="989" y="150"/>
    </contour>
  </outline>
</glyph>
<glyph name="Emacron" format="1">
  <advance width="1241"/>
  <unicode hex="0112"/>
  <outline>
    <contour>
      <point x="457" y="1757" type="line"/>
      <point x="457" y="1605" type="line"/>
      <point x="858" y="1605" type="line"/>
      <point x="858" y="1757" type="line"/>
    </contour>
    <contour>
      <point x="231" y="1446" type="line"/>
      <point x="231" y="0" type="line"/>
      <point x="1083" y="0" type="line"/>
      <point x="1083" y="150" type="line"/>
      <point x="432" y="150" type="line"/>
      <point x="432" y="664" type="line"/>
      <point x="1013" y="664" type="line"/>
      <point x="1013" y="814" type="line"/>
      <point x="432" y="814" type="line"/>
      <point x="432" y="1296" type="line"/>
      <point x="1074" y="1296" type="line"/>
      <point x="1074" y="1446" type="line"/>
    </contour>
  </outline>
</glyph>
<glyph name="Ebreve" format="1">
  <advance width="1241"/>
  <unicode hex="0114"/>
  <outline>
    <contour>
      <point x="431" y="1817" type="line"/>
      <point x="431" y="1702"/>
      <point x="518" y="1605"/>
      <point x="657" y="1605" type="curve" smooth="yes"/>
      <point x="796" y="1605"/>
      <point x="884" y="1702"/>
      <point x="884" y="1817" type="curve"/>
      <point x="778" y="1817" type="line"/>
      <point x="778" y="1748"/>
      <point x="730" y="1701"/>
      <point x="657" y="1701" type="curve" smooth="yes"/>
      <point x="588" y="1701"/>
      <point x="536" y="1751"/>
      <point x="536" y="1817" type="curve"/>
    </contour>
    <contour>
      <point x="231" y="1446" type="line"/>
      <point x="231" y="0" type="line"/>
      <point x="1083" y="0" type="line"/>
      <point x="1083" y="150" type="line"/>
      <point x="432" y="150" type="line"/>
      <point x="432" y="664" type="line"/>
      <point x="1013" y="664" type="line"/>
      <point x="1013" y="814" type="line"/>
      <point x="432" y="814" type="line"/>
      <point x="432" y="1296" type="line"/>
      <point x="1074" y="1296" type="line"/>
      <point x="1074" y="1446" type="line"/>
    </contour>
  </outline>
</glyph>
<glyph name="Edotaccent" format="1">
  <advance width="1241"/>
  <unicode hex="0116"/>
  <outline>
    <contour>
      <point x="530" y="1846" type="line"/>
      <point x="530" y="1605" type="line"/>
      <point x="784" y="1605" type="line"/>
      <point x="784" y="1846" type="line"/>
    </contour>
    <contour>
      <point x="231" y="1446" type="line"/>
      <point x="231" y="0" type="line"/>
      <point x="1083" y="0" type="line"/>
      <point x="1083" y="150" type="line"/>
      <point x="432" y="150" type="line"/>
      <point x="432" y="664" type="line"/>
      <point x="1013" y="664" type="line"/>
      <point x="1013" y="814" type="line"/>
      <point x="432" y="814" type="line"/>
      <point x="432" y="1296" type="line"/>
      <point x="1074" y="1296" type="line"/>
      <point x="1074" y="1446" type="line"/>
    </contour>
  </outline>
</glyph>
<glyph name="hcircumflex" format="1">
  <advance width="1214"/>
  <unicode hex="0125"/>
  <outline>
    <contour>
      <point x="545" y="1834" type="line"/>
      <point x="328" y="1568" type="line"/>
      <point x="489" y="1568" type="line"/>
      <point x="621" y="1742" type="line"/>
      <point x="745" y="1568" type="line"/>
      <point x="901" y="1568" type="line"/>
      <point x="695" y="1834" type="line"/>
    </contour>
    <contour>
      <point x="177" y="0" type="line"/>
      <point x="365" y="0" type="line"/>
      <point x="365" y="759" type="line" smooth="yes"/>
      <point x="365" y="861"/>
      <point x="450" y="942"/>
      <point x="634" y="942" type="curve" smooth="yes"/>
      <point x="765" y="942"/>
      <point x="864" y="892"/>
      <point x="864" y="787" type="curve" smooth="yes"/>
      <point x="864" y="0" type="line"/>
      <point x="1052" y="0" type="line"/>
      <point x="1052" y="774" type="line" smooth="yes"/>
      <point x="1052" y="942"/>
      <point x="943" y="1084"/>
      <point x="682" y="1084" type="curve" smooth="yes"/>
      <point x="528" y="1084"/>
      <point x="427" y="1033"/>
      <point x="365" y="961" type="curve"/>
      <point x="365" y="1446" type="line"/>
      <point x="177" y="1446" type="line"/>
    </contour>
  </outline>
</glyph>
<glyph name="dotaccent" format="1">
  <advance width="576"/>
  <unicode hex="02D9"/>
  <outline>
    <contour>
      <point x="161" y="1483" type="line"/>
      <point x="161" y="1242" type="line"/>
      <point x="415" y="1242" type="line"/>
      <point x="415" y="1483" type="line"/>
    </contour>
  </outline>
</glyph>
<glyph name="hungarumlaut" format="1">
  <advance width="986"/>
  <unicode hex="02DD"/>
  <outline>
    <contour>
      <point x="343" y="1483" type="line"/>
      <point x="237" y="1008" type="line"/>
      <point x="335" y="1008" type="line"/>
      <point x="554" y="1483" type="line"/>
    </contour>
    <contour>
      <point x="707" y="1483" type="line"/>
      <point x="478" y="1008" type="line"/>
      <point x="601" y="1008" type="line"/>
      <point x="917" y="1483" type="line"/>
    </contour>
  </outline>
</glyph>
<glyph name="fl" format="1">
  <advance width="1377"/>
  <unicode hex="FB02"/>
  <outline>
    <contour>
      <point x="1086" y="1446" type="line"/>
      <point x="587" y="1446" type="line" smooth="yes"/>
      <point x="369" y="1446"/>
      <point x="263" y="1258"/>
      <point x="263" y="1060" type="curve"/>
      <point x="101" y="1060" type="line"/>
      <point x="101" y="943" type="line"/>
      <point x="263" y="943" type="line"/>
      <point x="263" y="0" type="line"/>
      <point x="451" y="0" type="line"/>
      <point x="451" y="943" type="line"/>
      <point x="666" y="943" type="line"/>
      <point x="666" y="1060" type="line"/>
      <point x="451" y="1060" type="line"/>
      <point x="451" y="1148" type="line" smooth="yes"/>
      <point x="451" y="1224"/>
      <point x="488" y="1313"/>
      <point x="622" y="1313" type="curve" smooth="yes"/>
      <point x="898" y="1313" type="line"/>
      <point x="898" y="362" type="line" smooth="yes"/>
      <point x="898" y="83"/>
      <point x="1016" y="0"/>
      <point x="1248" y="0" type="curve" smooth="yes"/>
      <point x="1320" y="0" type="line"/>
      <point x="1320" y="145" type="line"/>
      <point x="1291" y="145" type="line" smooth="yes"/>
      <point x="1104" y="145"/>
      <point x="1086" y="217"/>
      <point x="1086" y="360" type="curve" smooth="yes"/>
    </contour>
  </outline>
</glyph>
